<?xml version="1.0" encoding="UTF-8" standalone="no"?><svg xmlns:svg="http://www.w3.org/2000/svg" xmlns="http://www.w3.org/2000/svg" xmlns:xlink="http://www.w3.org/1999/xlink" version="1.0" width="64px" height="22px" viewBox="0 0 128 44" xml:space="preserve"><rect x="0" y="0" width="100%" height="100%" fill="#FFFFFF" /><g><path fill="#949494" fill-opacity="1" d="M-80.265.241h8.122A1.951,1.951,0,0,1-70.18,2.18V41.845a1.951,1.951,0,0,1-1.963,1.939h-8.122a1.951,1.951,0,0,1-1.963-1.939V2.18A1.951,1.951,0,0,1-80.265.241Zm16.468,0h8.122A1.951,1.951,0,0,1-53.712,2.18V41.845a1.951,1.951,0,0,1-1.963,1.939H-63.8a1.951,1.951,0,0,1-1.963-1.939V2.18A1.951,1.951,0,0,1-63.8.241Zm16.468,14.6h8.122a1.951,1.951,0,0,1,1.963,1.939V41.845a1.951,1.951,0,0,1-1.963,1.939h-8.122a1.951,1.951,0,0,1-1.963-1.939V16.784A1.951,1.951,0,0,1-47.329,14.845Zm16.468,15.728h8.122a1.951,1.951,0,0,1,1.963,1.939v9.333a1.951,1.951,0,0,1-1.963,1.939h-8.122a1.951,1.951,0,0,1-1.963-1.939V32.512A1.951,1.951,0,0,1-30.861,30.573Zm16.655-15.728h8.122a1.951,1.951,0,0,1,1.963,1.939V41.845a1.951,1.951,0,0,1-1.963,1.939h-8.122a1.951,1.951,0,0,1-1.963-1.939V16.784A1.951,1.951,0,0,1-14.206,14.845ZM2.074,0.241H10.2A1.951,1.951,0,0,1,12.159,2.18V41.845A1.951,1.951,0,0,1,10.2,43.784H2.074A1.951,1.951,0,0,1,.112,41.845V2.18A1.951,1.951,0,0,1,2.074.241Zm16.655,0h8.122A1.951,1.951,0,0,1,28.814,2.18V41.845a1.951,1.951,0,0,1-1.963,1.939H18.729a1.951,1.951,0,0,1-1.963-1.939V2.18A1.951,1.951,0,0,1,18.729.241Zm16.468,0h8.122A1.951,1.951,0,0,1,45.282,2.18V41.845a1.951,1.951,0,0,1-1.963,1.939H35.2a1.951,1.951,0,0,1-1.963-1.939V2.18A1.951,1.951,0,0,1,35.2.241Zm16.377,0H59.7A1.951,1.951,0,0,1,61.659,2.18V41.845A1.951,1.951,0,0,1,59.7,43.784H51.574a1.951,1.951,0,0,1-1.963-1.939V2.18A1.951,1.951,0,0,1,51.574.241Zm16.655,0h8.122A1.951,1.951,0,0,1,78.314,2.18V41.845a1.951,1.951,0,0,1-1.963,1.939H68.229a1.951,1.951,0,0,1-1.963-1.939V2.18A1.951,1.951,0,0,1,68.229.241Zm16.468,0h8.122A1.951,1.951,0,0,1,94.782,2.18V41.845a1.951,1.951,0,0,1-1.963,1.939H84.7a1.951,1.951,0,0,1-1.963-1.939V2.18A1.951,1.951,0,0,1,84.7.241Zm16.532,0h8.122a1.951,1.951,0,0,1,1.963,1.939V41.845a1.951,1.951,0,0,1-1.963,1.939h-8.122a1.951,1.951,0,0,1-1.963-1.939V2.18A1.951,1.951,0,0,1,101.229.241Zm16.468,0h8.122a1.951,1.951,0,0,1,1.963,1.939V41.845a1.951,1.951,0,0,1-1.963,1.939H117.7a1.951,1.951,0,0,1-1.963-1.939V2.18A1.951,1.951,0,0,1,117.7.241Zm-230.962,0h8.122A1.951,1.951,0,0,1-103.18,2.18V41.845a1.951,1.951,0,0,1-1.963,1.939h-8.122a1.951,1.951,0,0,1-1.963-1.939V2.18A1.951,1.951,0,0,1-113.265.241Zm16.468,0h8.122A1.951,1.951,0,0,1-86.712,2.18V41.845a1.951,1.951,0,0,1-1.963,1.939H-96.8a1.951,1.951,0,0,1-1.963-1.939V2.18A1.951,1.951,0,0,1-96.8.241Zm-49.468,0h8.122A1.951,1.951,0,0,1-136.18,2.18V41.845a1.951,1.951,0,0,1-1.963,1.939h-8.122a1.951,1.951,0,0,1-1.963-1.939V2.18A1.951,1.951,0,0,1-146.265.241Zm16.468,0h8.122a1.951,1.951,0,0,1,1.963,1.939V41.845a1.951,1.951,0,0,1-1.963,1.939H-129.8a1.951,1.951,0,0,1-1.963-1.939V2.18A1.951,1.951,0,0,1-129.8.241Zm-49.468,0h8.122A1.951,1.951,0,0,1-169.18,2.18V41.845a1.951,1.951,0,0,1-1.963,1.939h-8.122a1.951,1.951,0,0,1-1.963-1.939V2.18A1.951,1.951,0,0,1-179.265.241Zm16.468,0h8.122a1.951,1.951,0,0,1,1.963,1.939V41.845a1.951,1.951,0,0,1-1.963,1.939H-162.8a1.951,1.951,0,0,1-1.963-1.939V2.18A1.951,1.951,0,0,1-162.8.241Z"/><animateTransform attributeName="transform" type="translate" values="16.5 0;33 0;49.5 0;66 0;82.5 0;99 0;115.5 0;132 0;148.5 0;165 0;181.5 0" calcMode="discrete" dur="880ms" repeatCount="indefinite"/></g></svg>
